<svg width="100" height="125" viewBox="0 0 100 100" fill="none" xmlns="http://www.w3.org/2000/svg">
<rect width="100" height="125" fill="#F5F5F5"/>
<rect width="100" height="125" fill="black"/>
<path d="M91.26 33.12C91.15 37.5 91.02 42.88 90.88 48.27C90.82 50.61 90.72 52.95 90.7 55.27C90.6906 60.6298 88.675 65.792 85.05 69.74C79.86 75.65 74.74 81.6 69.61 87.54C67.7503 89.6875 65.2332 91.1605 62.45 91.73C58.55 92.62 54.67 93.61 50.78 94.54C50.4514 94.6194 50.1086 94.6194 49.78 94.54C45.61 93.54 41.44 92.54 37.27 91.54C34.4954 90.7986 32.038 89.1732 30.27 86.91C26.27 82.22 22.21 77.59 18.18 72.91C16.72 71.22 15.18 69.57 13.85 67.79C11.1167 64.0893 9.66026 59.6005 9.69999 55C9.57999 48.57 9.37999 42.14 9.21999 35.7C9.21999 34.89 9.21999 34.08 9.21999 33.26V7.7C9.14676 7.14255 9.29073 6.57829 9.62208 6.12407C9.95344 5.66985 10.4468 5.36047 11 5.26C11.3948 5.20546 11.7971 5.25312 12.1683 5.39844C12.5394 5.54376 12.8671 5.78187 13.12 6.09L24.56 17.3C26.67 19.37 28.8 21.44 30.91 23.53C31.4368 24.1188 32.1324 24.5308 32.9019 24.7097C33.6714 24.8887 34.4774 24.8259 35.21 24.53C36.98 23.91 38.72 23.21 40.52 22.69C42.0234 22.1936 43.5814 21.8814 45.16 21.76C48.53 21.62 51.92 21.7 55.31 21.76C57.6147 21.9024 59.8777 22.4402 62 23.35C63.14 23.76 64.28 24.14 65.42 24.54C66.1283 24.8135 66.9033 24.8643 67.6413 24.6856C68.3793 24.5069 69.0452 24.1073 69.55 23.54L85.59 7.74L87.43 6C87.7336 5.67271 88.1293 5.44505 88.5648 5.347C89.0004 5.24896 89.4554 5.28513 89.87 5.45075C90.2846 5.61637 90.6393 5.90368 90.8874 6.27483C91.1355 6.64599 91.2654 7.08358 91.26 7.53C91.26 8.2 91.26 8.86 91.26 9.53V33.12ZM90.19 33.76V8C90.19 7.79 90.19 7.58 90.19 7.37C90.1841 7.21734 90.1453 7.06775 90.0762 6.93149C90.0071 6.79522 89.9094 6.6755 89.7897 6.58053C89.6701 6.48555 89.5313 6.41757 89.3829 6.38123C89.2345 6.34489 89.08 6.34106 88.93 6.37C88.5763 6.47731 88.2561 6.67357 88 6.94C82.3267 12.4933 76.66 18.0533 71 23.62C70.6 24.02 70.2 24.42 69.76 24.78C69.1418 25.3101 68.3952 25.6685 67.5949 25.8195C66.7947 25.9704 65.9688 25.9085 65.2 25.64C63.38 25.05 61.58 24.39 59.78 23.74C58.156 23.126 56.4361 22.8044 54.7 22.79C51.7 22.79 48.7 22.79 45.7 22.79C44.1744 22.7778 42.6584 23.0316 41.22 23.54C39.22 24.23 37.29 24.94 35.32 25.61C34.4508 25.9329 33.5059 25.9932 32.6027 25.7834C31.6995 25.5736 30.8779 25.103 30.24 24.43C29.14 23.43 28.05 22.31 26.97 21.24L12.34 6.81C12.1294 6.5852 11.8586 6.42555 11.56 6.35C10.75 6.19 10.23 6.74 10.23 7.73C10.23 12.82 10.23 17.92 10.23 23.02C10.23 28.55 10.31 34.09 10.41 39.62C10.51 45.15 10.69 50.47 10.82 55.9C10.8519 60.2995 12.4308 64.5476 15.28 67.9C20.83 74.41 26.48 80.84 32.1 87.29C33.3199 88.7554 34.9663 89.804 36.81 90.29C41.18 91.42 45.58 92.46 49.97 93.52C50.1709 93.5645 50.3791 93.5645 50.58 93.52C54.77 92.52 58.96 91.52 63.15 90.52C65.2391 90.0166 67.1154 88.8649 68.51 87.23L84.69 68.51C87.3317 65.566 88.9888 61.8708 89.43 57.94C89.64 55.94 89.63 53.94 89.69 52C89.88 45.45 90.05 38.89 90.19 33.76Z" fill="white"/>
<path d="M27.61 45.7C29.9254 45.6407 32.2207 46.1427 34.2999 47.1631C36.3791 48.1836 38.1805 49.6922 39.55 51.56C40.1115 52.342 40.6257 53.1567 41.09 54C41.146 54.0996 41.1803 54.2098 41.1906 54.3236C41.2009 54.4373 41.1871 54.552 41.15 54.66C40.0053 57.3626 38.034 59.6332 35.5188 61.1459C33.0036 62.6586 30.0739 63.3357 27.15 63.08C24.851 62.9469 22.6228 62.2355 20.6719 61.0118C18.721 59.7882 17.1107 58.0918 15.99 56.08C14.99 54.46 14.99 54.19 16.06 52.62C18.0228 49.442 21.1174 47.1264 24.72 46.14C25.6748 45.9419 26.6395 45.795 27.61 45.7ZM33.4 54.62C33.4 53.6311 33.1068 52.6644 32.5574 51.8422C32.0079 51.0199 31.2271 50.379 30.3134 50.0006C29.3998 49.6222 28.3945 49.5232 27.4246 49.7161C26.4547 49.909 25.5637 50.3852 24.8645 51.0845C24.1652 51.7837 23.689 52.6746 23.4961 53.6446C23.3032 54.6145 23.4022 55.6198 23.7806 56.5334C24.159 57.4471 24.7999 58.2279 25.6222 58.7774C26.4444 59.3268 27.4111 59.62 28.4 59.62C29.0596 59.6308 29.7146 59.5089 30.3261 59.2614C30.9377 59.014 31.4932 58.6461 31.9596 58.1796C32.4261 57.7132 32.794 57.1577 33.0414 56.5461C33.2889 55.9346 33.4108 55.2796 33.4 54.62Z" fill="white"/>
<path d="M87.45 21.92C87.45 24.78 87.45 27.65 87.45 30.51C87.4794 30.9979 87.3718 31.4843 87.1392 31.9142C86.9067 32.3441 86.5585 32.7004 86.134 32.9428C85.7096 33.1852 85.2258 33.3041 84.7374 33.2859C84.2489 33.2677 83.7753 33.1133 83.37 32.84L75.69 28.27C75.2453 28.0562 74.8602 27.736 74.5688 27.3378C74.2774 26.9396 74.0887 26.4757 74.0195 25.9871C73.9503 25.4986 74.0026 25.0005 74.1719 24.537C74.3412 24.0735 74.6222 23.6589 74.99 23.33L85.07 12.52C85.73 11.81 86.34 11.66 86.92 12.08C87.1117 12.2246 87.2617 12.4173 87.3548 12.6386C87.4479 12.8599 87.4807 13.1019 87.45 13.34C87.44 16.2 87.45 19.06 87.45 21.92Z" fill="white"/>
<path d="M12.7 22C12.7 19.12 12.7 16.24 12.7 13.36C12.7186 12.9122 12.8918 12.4846 13.19 12.15C13.65 11.66 14.35 11.81 14.94 12.43C16.17 13.73 17.39 15.05 18.62 16.36C20.75 18.65 22.88 20.95 25.02 23.23C26.69 25.01 26.4 27.13 24.31 28.36L16.79 32.84C16.3913 33.1256 15.9199 33.2926 15.4303 33.3218C14.9407 33.3509 14.4529 33.241 14.0231 33.0046C13.5933 32.7683 13.2392 32.4153 13.0015 31.9862C12.7638 31.5572 12.6524 31.0697 12.68 30.58C12.68 27.69 12.7 24.83 12.7 22Z" fill="white"/>
<path d="M62.38 79.09C61.5131 79.6134 60.877 80.446 60.6 81.42C60.19 82.68 59.69 83.92 59.19 85.15C59.016 85.4369 58.7965 85.6936 58.54 85.91C58.2739 85.6861 58.0474 85.419 57.87 85.12C57.33 83.81 56.87 82.49 56.35 81.12C56.3182 80.9483 56.2215 80.7954 56.08 80.693C55.9385 80.5906 55.7631 80.5465 55.59 80.57C51.98 80.57 48.36 80.57 44.75 80.57C44.5775 80.5483 44.4031 80.5916 44.2608 80.6914C44.1185 80.7912 44.0184 80.9404 43.98 81.11C43.48 82.5 42.98 83.88 42.4 85.25C42.29 85.5 42 85.66 41.79 85.87C41.59 85.66 41.3 85.49 41.2 85.23C40.69 84 40.2 82.77 39.78 81.5C39.4411 80.5877 38.8169 79.8091 38 79.28L32.87 82.2L32.38 82.48C32.06 82.68 31.7 82.83 31.46 82.41C31.22 81.99 31.54 81.73 31.9 81.53C32.78 81.03 33.67 80.53 34.55 80L37.12 78.51C36.5 77.88 35.58 77.51 35.98 76.29H28.21C27.84 76.29 27.52 76.21 27.51 75.77C27.5 75.33 27.83 75.23 28.2 75.23H35.91C35.8642 74.848 35.8642 74.462 35.91 74.08C36.0424 73.7447 36.2245 73.4312 36.45 73.15C35.03 72.44 33.57 71.73 32.12 71C31.72 70.8 31.12 70.64 31.44 70C31.76 69.36 32.2 69.81 32.59 70L37.34 72.35L39.18 70.57C39.44 70.32 39.69 70.11 40.04 70.44C40.39 70.77 40.19 71.04 39.95 71.29C39.46 71.8 38.95 72.29 38.41 72.86L40.92 74.11C41.08 74.19 41.3 74.23 41.41 74.37C41.5438 74.5914 41.6544 74.8259 41.74 75.07C41.48 75.15 41.15 75.37 40.95 75.29C40.07 74.92 39.23 74.44 38.36 74.05C38.06 73.92 37.78 73.49 37.36 73.85C36.94 74.21 36.89 74.38 37.06 75.16C37.5316 75.1551 38.0029 75.1852 38.47 75.25C38.67 75.25 38.81 75.57 38.98 75.74C38.8 75.91 38.64 76.19 38.44 76.23C37.9673 76.2651 37.4927 76.2651 37.02 76.23C36.8 77.18 37.69 77.33 38.02 77.9C38.84 77.43 39.64 76.98 40.42 76.52C40.76 76.32 41.11 76.21 41.34 76.6C41.57 76.99 41.34 77.27 40.97 77.46L38.97 78.6C39.1699 78.9118 39.4524 79.162 39.7861 79.3227C40.1198 79.4833 40.4916 79.5482 40.86 79.51C43.65 79.51 46.45 79.51 49.35 79.51C49.35 78.51 49.35 77.62 49.35 76.69C49.3537 76.4311 49.4577 76.1838 49.64 76C49.7388 75.927 49.8568 75.8845 49.9795 75.8777C50.1021 75.871 50.2241 75.9002 50.3304 75.9618C50.4366 76.0234 50.5225 76.1148 50.5776 76.2246C50.6326 76.3345 50.6543 76.458 50.64 76.58C50.64 77.58 50.64 78.49 50.64 79.51H51.64C54.11 79.51 56.57 79.45 59.04 79.51C59.4641 79.5201 59.884 79.4238 60.2613 79.2299C60.6386 79.036 60.9613 78.7507 61.2 78.4L59.29 77.29C58.97 77.1 58.57 76.94 58.84 76.44C59.11 75.94 59.51 76.19 59.84 76.37L61.52 77.37C61.671 77.4527 61.8408 77.4949 62.0129 77.4927C62.1851 77.4905 62.3537 77.4439 62.5026 77.3574C62.6514 77.2709 62.7754 77.1475 62.8626 76.999C62.9497 76.8506 62.997 76.6821 63 76.51C63 76.39 63 76.27 63 76.07C62.59 76.07 62.22 76.07 61.85 76.07C61.48 76.07 61.19 75.89 61.28 75.51C61.3329 75.3913 61.4115 75.2858 61.5101 75.2011C61.6086 75.1164 61.7247 75.0545 61.85 75.02C62.2656 74.9785 62.6844 74.9785 63.1 75.02C63.0379 74.6765 62.9372 74.341 62.8 74.02C62.59 73.66 62.3 73.58 61.87 73.82C61.08 74.28 60.24 74.65 59.42 75.06C59.08 75.23 58.73 75.35 58.51 74.91C58.29 74.47 58.59 74.27 58.93 74.1L61.56 72.8C61.06 72.3 60.61 71.8 60.14 71.4C59.84 71.13 59.56 70.84 59.9 70.4C60.24 69.96 60.57 70.26 60.9 70.55C61.23 70.84 61.75 71.35 62.14 71.79C62.195 71.8748 62.2669 71.9473 62.3514 72.0029C62.4358 72.0585 62.5308 72.0959 62.6305 72.1128C62.7301 72.1297 62.8322 72.1258 62.9302 72.1012C63.0283 72.0766 63.1201 72.0319 63.2 71.97C64.7 71.19 66.2 70.47 67.74 69.73C67.9355 69.6187 68.1552 69.557 68.38 69.55C68.4748 69.5606 68.5658 69.5932 68.6457 69.6453C68.7256 69.6974 68.7921 69.7675 68.84 69.85C68.8555 69.9455 68.8501 70.0432 68.8242 70.1364C68.7983 70.2297 68.7525 70.3162 68.69 70.39C68.5375 70.5274 68.3613 70.6358 68.17 70.71L64.17 72.71C63.97 72.8 63.77 72.92 63.47 73.08C64.24 73.52 64.17 74.23 64.18 74.95H72C72.41 74.95 72.81 74.95 72.81 75.5C72.81 76.05 72.37 76.03 71.98 76.02H64.25C64.2478 76.4394 64.1576 76.8536 63.9854 77.236C63.8131 77.6184 63.5626 77.9604 63.25 78.24L64.53 78.99L68.48 81.28C68.81 81.46 69.13 81.68 68.89 82.1C68.65 82.52 68.25 82.38 67.89 82.19L62.38 79.09ZM59.75 80.69H57.31L58.53 83.87L59.75 80.69ZM41.75 83.69H41.9L43.05 80.69H40.58L41.75 83.69Z" fill="white"/>
<path d="M49.62 38H45.81C45.48 38 45.18 37.91 45.16 37.49C45.14 37.07 45.46 36.91 45.82 36.91C46.82 36.91 47.82 36.91 48.89 36.91H49.59V34.42H46.79C46.16 34.42 45.54 34.42 44.91 34.42C44.28 34.42 44.08 34.02 44.38 33.5C46.1267 30.5 47.8667 27.4867 49.6 24.46C49.98 23.81 50.39 23.85 50.8 24.55L54.7 31.32C55.09 32.01 55.49 32.69 55.89 33.38C56.29 34.07 56.07 34.38 55.3 34.38H50.75V36.89H54.16C54.58 36.89 55.16 36.77 55.16 37.39C55.16 38.01 54.57 37.99 54.1 37.99H50.7V41.39L51.2 41.59C51.7292 41.8199 52.1631 42.2251 52.4286 42.7374C52.6941 43.2498 52.7749 43.8379 52.6575 44.4029C52.5401 44.9678 52.2316 45.4751 51.784 45.8392C51.3364 46.2034 50.777 46.4022 50.2 46.4022C49.623 46.4022 49.0636 46.2034 48.616 45.8392C48.1684 45.4751 47.8599 44.9678 47.7425 44.4029C47.6251 43.8379 47.7059 43.2498 47.9714 42.7374C48.2369 42.2251 48.6707 41.8199 49.2 41.59C49.36 41.51 49.59 41.33 49.59 41.19C49.64 40.22 49.62 39.16 49.62 38ZM50.72 33.27H54.6L50.82 26.72L50.72 26.77V33.27ZM49.58 26.82H49.47L45.74 33.29H49.58V26.82ZM50.27 45.3C50.6399 45.2924 50.9926 45.1428 51.2551 44.8822C51.5177 44.6215 51.6698 44.2698 51.68 43.9C51.683 43.7124 51.6474 43.5261 51.5754 43.3528C51.5035 43.1795 51.3967 43.0228 51.2616 42.8925C51.1266 42.7622 50.9663 42.661 50.7905 42.5952C50.6148 42.5294 50.4274 42.5004 50.24 42.51C50.0572 42.5033 49.875 42.5335 49.7042 42.5988C49.5334 42.6641 49.3775 42.7633 49.2458 42.8902C49.1142 43.0172 49.0095 43.1694 48.9381 43.3377C48.8666 43.5061 48.8299 43.6871 48.83 43.87C48.8273 44.0608 48.8626 44.2502 48.9338 44.4272C49.005 44.6042 49.1106 44.7653 49.2446 44.9012C49.3786 45.037 49.5382 45.1449 49.7143 45.2185C49.8903 45.2921 50.0792 45.33 50.27 45.33V45.3Z" fill="white"/>
<path d="M50.16 64.63L54.73 73.12H45.6L50.16 64.63Z" fill="white"/>
<path d="M27.55 39.31C27.55 38.39 27.55 37.48 27.55 36.56C27.55 36.18 27.55 35.77 28.11 35.79C28.67 35.81 28.64 36.17 28.64 36.53V42.23C28.64 42.59 28.64 42.95 28.1 42.96C27.56 42.97 27.55 42.62 27.55 42.25C27.54 41.27 27.55 40.29 27.55 39.31Z" fill="white"/>
<path d="M77.14 37C76.72 38.66 76.33 40.17 75.95 41.67C75.8645 42.1426 75.7408 42.6075 75.58 43.06C75.48 43.28 75.15 43.4 74.93 43.56C74.81 43.29 74.54 42.99 74.59 42.76C75.04 40.84 75.59 38.93 76.02 37.01C76.11 36.66 76.34 36.43 76.7 36.56C76.9 36.63 77 36.88 77.14 37Z" fill="white"/>
<path d="M69.42 43.07C69.28 43.21 69.14 43.49 68.93 43.55C68.51 43.67 68.36 43.31 68.27 42.98C67.84 41.28 67.42 39.59 66.99 37.9C66.8952 37.6711 66.8411 37.4275 66.83 37.18C66.83 36.96 67.04 36.58 67.16 36.58C67.2896 36.5835 67.4166 36.6169 67.5311 36.6776C67.6456 36.7383 67.7444 36.8247 67.82 36.93C68.0163 37.5231 68.1766 38.1276 68.3 38.74C68.63 40.03 68.95 41.32 69.3 42.61C69.31 42.73 69.35 42.84 69.42 43.07Z" fill="white"/>
<path d="M30.57 42.87C30.75 42.13 30.89 41.52 31.04 40.92C31.39 39.55 31.75 38.19 32.1 36.82C32.19 36.46 32.34 36.19 32.78 36.29C33.22 36.39 33.22 36.75 33.14 37.09C32.66 38.98 32.14 40.87 31.66 42.75C31.6008 42.8759 31.516 42.9881 31.4109 43.0794C31.3059 43.1706 31.183 43.239 31.05 43.28C30.93 43.32 30.7 43 30.57 42.87Z" fill="white"/>
<path d="M25.47 42.87C25.37 42.98 25.17 43.31 25.06 43.28C24.95 43.25 24.46 43.02 24.4 42.81C24.02 41.51 23.71 40.2 23.4 38.89C23.25 38.26 23.07 37.64 22.92 37.02C22.84 36.68 22.92 36.32 23.29 36.3C23.4208 36.3106 23.5469 36.3537 23.6569 36.4253C23.7669 36.4969 23.8573 36.5947 23.92 36.71C24.46 38.71 24.92 40.65 25.45 42.62C25.43 42.66 25.44 42.7 25.47 42.87Z" fill="white"/>
<path d="M71.49 39.6C71.49 38.6 71.49 37.68 71.49 36.72C71.49 36.35 71.56 36.02 72 36.02C72.44 36.02 72.54 36.32 72.54 36.7C72.54 38.66 72.54 40.62 72.54 42.58C72.54 42.96 72.42 43.26 71.99 43.25C71.56 43.24 71.49 42.91 71.49 42.54C71.5 41.56 71.49 40.58 71.49 39.6Z" fill="white"/>
<path d="M75.52 46.53C79.121 47.514 82.2154 49.8258 84.18 53C85.24 54.57 85.25 54.84 84.24 56.46C83.1162 58.4643 81.5037 60.1516 79.5524 61.3651C77.6011 62.5785 75.3746 63.2785 73.08 63.4C70.1566 63.6611 67.2257 62.9875 64.7097 61.4761C62.1937 59.9647 60.2225 57.6936 59.08 54.99C59.0402 54.8825 59.025 54.7674 59.0354 54.6532C59.0457 54.539 59.0815 54.4286 59.14 54.33C59.5954 53.4879 60.11 52.6792 60.68 51.91C62.0495 50.0422 63.8509 48.5336 65.9301 47.5131C68.0093 46.4927 70.3046 45.9907 72.62 46.05C73.5952 46.153 74.5636 46.3133 75.52 46.53ZM71.82 59.93C72.8089 59.93 73.7756 59.6368 74.5979 59.0873C75.4201 58.5379 76.061 57.757 76.4394 56.8434C76.8178 55.9298 76.9168 54.9244 76.7239 53.9545C76.531 52.9846 76.0548 52.0937 75.3555 51.3945C74.6563 50.6952 73.7653 50.219 72.7954 50.0261C71.8255 49.8331 70.8202 49.9322 69.9066 50.3106C68.993 50.689 68.2121 51.3299 67.6626 52.1521C67.1132 52.9744 66.82 53.9411 66.82 54.93C66.8078 55.59 66.9288 56.2456 67.1757 56.8578C67.4227 57.4699 67.7905 58.026 68.2573 58.4927C68.724 58.9595 69.2801 59.3273 69.8922 59.5743C70.5044 59.8212 71.16 59.9422 71.82 59.93Z" fill="white"/>
</svg>
